<svg xmlns="http://www.w3.org/2000/svg" xmlns:xlink="http://www.w3.org/1999/xlink" fill="none" version="1.1" width="24" height="24" viewBox="0 0 24 24"><g><g></g><g><g><ellipse cx="12" cy="12" rx="10" ry="10" fill="#F76F5A" fill-opacity="1"/></g><g><path d="M16.59447,9.457283Q16.67011,9.358953,16.710050000000003,9.241505Q16.75,9.124056,16.75,9Q16.75,8.9261315,16.735590000000002,8.853682Q16.72118,8.781233,16.692909999999998,8.712987Q16.66464,8.644742,16.6236,8.583322Q16.58256,8.521903,16.53033,8.46967Q16.478099999999998,8.417437,16.41668,8.376398Q16.35526,8.335359,16.287010000000002,8.30709Q16.21877,8.278822,16.14632,8.264410999999999Q16.07387,8.25,16,8.25Q15.91383,8.25,15.82991,8.269541Q15.745989999999999,8.289083,15.66869,8.327147Q15.591380000000001,8.365211,15.52472,8.419815Q15.45807,8.474419,15.405529999999999,8.542717L10.92633,14.36567L8.53033,11.96967Q8.424841,11.864180000000001,8.287013,11.80709Q8.149184,11.75,8,11.75Q7.9261315,11.75,7.853682,11.76441Q7.781233,11.77882,7.712987,11.80709Q7.644742,11.83536,7.583322,11.8764Q7.521903,11.91744,7.46967,11.96967Q7.417437,12.0219,7.376398,12.08332Q7.335359,12.14474,7.30709,12.21299Q7.278822,12.28123,7.264411,12.35368Q7.25,12.42613,7.25,12.5Q7.25,12.64918,7.30709,12.78701Q7.364181,12.92484,7.46967,13.03033L7.4701319999999996,13.03079L10.46967,16.03033Q10.50411,16.06477,10.54272,16.09447Q10.66096,16.18543,10.805019999999999,16.22421Q10.949069999999999,16.262990000000002,11.097,16.2437Q11.24494,16.2244,11.374220000000001,16.14997Q11.50351,16.07553,11.59447,15.95728L16.59447,9.457283L16.59447,9.457283Z" fill-rule="evenodd" fill="#FFFFFF" fill-opacity="1"/></g></g></g></svg>