<svg xmlns="http://www.w3.org/2000/svg" xmlns:xlink="http://www.w3.org/1999/xlink" fill="none" version="1.1" width="24" height="24" viewBox="0 0 24 24"><defs><clipPath id="master_svg0_12_396/4_254"><rect x="0" y="0" width="24" height="24" rx="0"/></clipPath></defs><g><g clip-path="url(#master_svg0_12_396/4_254)"><g><path d="M3.32727,20.942209998703003L17.8727,20.942209998703003C19.1393,20.942209998703003,20.1697,19.949109998703,20.1993,18.712909998703005C20.2002,18.675809998703002,20.1979,18.639609998703,20.1938,18.602609998703002L18.7153,5.397579998703003C18.7112,5.360639998703003,18.7093,5.3244499987030025,18.7084,5.287279998703003C18.6788,4.0511869987030025,17.6484,3.058109998703003,16.3818,3.058109998703003L4.52727,3.058109998703003C3.25702,3.058109998703003,2.22445,4.056863998703003,2.20043,5.297869998703003C2.19985,5.3278299987030024,2.1986499999999998,5.3570599987030025,2.19596,5.386909998703003L1.0040359699999999,18.613309998703002C1.00134668,18.643109998703004,0.999848035,18.672409998703003,1.000427989,18.702309998703C1.0244544,19.943409998703004,2.05702,20.942209998703003,3.32727,20.942209998703003Z" fill="#D8DEF1" fill-opacity="1"/></g><g><path d="M7.75,8.342685334125488Q7.750191,9.52286496612549,8.58476,10.357434966125489Q9.419509999999999,11.192194966125488,10.6,11.192194966125488Q11.78049,11.192194966125488,12.61524,10.357434966125489Q13.45,9.52267496612549,13.45,8.342144966125488Q13.45,8.268276466125489,13.46441,8.195826966125487Q13.478819999999999,8.123377966125489,13.50709,8.055131966125488Q13.53536,7.986886966125488,13.5764,7.925466966125488Q13.61744,7.864047966125488,13.66967,7.811814966125488Q13.7219,7.759581966125488,13.78332,7.718542966125488Q13.84474,7.677503966125489,13.91299,7.649234966125488Q13.98123,7.620966966125488,14.05368,7.606555966125488Q14.12613,7.592144966125488,14.2,7.592144966125488Q14.273869999999999,7.592144966125488,14.34632,7.606555966125488Q14.41877,7.620966966125488,14.48701,7.649234966125488Q14.55526,7.677503966125489,14.616679999999999,7.718542966125488Q14.6781,7.759581966125488,14.73033,7.811814966125488Q14.78256,7.864047966125488,14.823599999999999,7.925466966125488Q14.86464,7.986886966125488,14.89291,8.055131966125488Q14.92118,8.123377966125489,14.935590000000001,8.195826966125487Q14.95,8.268276466125489,14.95,8.342144966125488Q14.95,10.143984966125489,13.67591,11.418094966125489Q12.40182,12.692194966125488,10.6,12.692194966125488Q8.79818,12.692194966125488,7.524092,11.418094966125489Q6.25,10.143984966125489,6.25,8.342144966125488Q6.25,8.268276466125489,6.264411,8.195826966125487Q6.278822,8.123377966125489,6.30709,8.055131966125488Q6.335359,7.986886966125488,6.376398,7.925466966125488Q6.417437,7.864047966125488,6.46967,7.811814966125488Q6.521903,7.759581966125488,6.583322,7.718542966125488Q6.644742,7.677503966125489,6.712987,7.649234966125488Q6.781233,7.620966966125488,6.853682,7.606555966125488Q6.9261315,7.592144966125488,7,7.592144966125488Q7.0738685,7.592144966125488,7.146318,7.606555966125488Q7.218767,7.620966966125488,7.287013,7.649234966125488Q7.355258,7.677503966125489,7.416678,7.718542966125488Q7.478097,7.759581966125488,7.53033,7.811814966125488Q7.582563,7.864047966125488,7.623602,7.925466966125488Q7.664641,7.986886966125488,7.69291,8.055131966125488Q7.721178,8.123377966125489,7.735589,8.195826966125487Q7.75,8.268276466125489,7.75,8.342144966125488L7.75,8.342685334125488Z" fill-rule="evenodd" fill="#959DB3" fill-opacity="1"/></g></g><g transform="matrix(1,0,0,-1,0,48)"></g></g></svg>