<svg xmlns="http://www.w3.org/2000/svg" xmlns:xlink="http://www.w3.org/1999/xlink" fill="none" version="1.1" width="24" height="24" viewBox="0 0 24 24"><g><g><g><path d="M14.4172,4.18984Q14.4759,4.38749,14.6125,4.54651Q14.7613,4.72155,14.9779,4.81132Q15.1933,4.90052,15.4261,4.88249Q15.6616,4.86424,15.8589,4.74326Q17.517699999999998,3.729677,18.8951,5.10566Q20.2723,6.48156,19.2621,8.13979Q19.1343,8.35164,19.118,8.57149Q19.1002,8.81119,19.1865,9.007249999999999L19.1918,9.01939L19.1968,9.03172Q19.2799,9.24039,19.4517,9.384409999999999L19.4595,9.390889999999999L19.467,9.39758Q19.628,9.54005,19.856,9.59621Q21.75,10.05354,21.75,11.99988Q21.75,13.9459,19.8593,14.4035Q19.6293,14.4601,19.4534,14.6147Q19.2799,14.761,19.1964,14.9697L19.1919,14.981L19.187,14.9922Q19.1002,15.1901,19.118,15.429Q19.1342,15.6487,19.2606,15.8582Q20.2722,17.5198,18.895,18.8953Q17.5178,20.2708,15.858,19.2567Q15.6635,19.1374,15.4259,19.119Q15.1935,19.1009,14.9781,19.1901Q14.7624,19.2795,14.6112,19.4555Q14.4587,19.634,14.4039,19.8596Q13.9464,21.7503,12.00037,21.7503Q10.05466,21.7503,9.59614,19.86Q9.54099,19.6326,9.38872,19.4554Q9.23757,19.2785,9.0221,19.1892Q8.80667,19.1,8.57393,19.118Q8.342690000000001,19.1359,8.14232,19.2577Q6.48071,20.2703,5.105309999999999,18.8949Q3.729903,17.5195,4.74285,15.8574Q4.86425,15.6586,4.8822600000000005,15.4261Q4.90033,15.1937,4.81116,14.9783Q4.72237,14.7641,4.5447500000000005,14.6114Q4.36627,14.4589,4.1406,14.4042Q2.249985,13.9466,2.249985,12.00061Q2.249985,10.05491,4.13965,9.59653Q4.62041,9.47952,4.81001,9.02201Q4.99953,8.56466,4.74267,8.14275Q3.729768,6.4817800000000005,5.10524,5.105980000000001Q6.480729999999999,3.7301640000000003,8.14152,4.74232Q8.34075,4.8634,8.57413,4.88153Q8.806519999999999,4.8995999999999995,9.02094,4.81077Q9.236519999999999,4.72108,9.38916,4.54246Q9.54,4.36692,9.59523,4.13892Q10.05482,2.249969,12,2.249969Q13.9452,2.2499700000000002,14.4048,4.13892L14.4172,4.18984ZM12.93176,4.43482Q12.73549,3.749969,12,3.749969Q11.23363,3.749969,11.05272,4.49353Q10.91287,5.0708,10.52685,5.52004Q10.14386,5.96824,9.597100000000001,6.1957Q9.04859,6.42295,8.45785,6.37702Q7.86765,6.331160000000001,7.3625,6.02416Q6.70746,5.62495,6.16603,6.166510000000001Q5.62465,6.708019999999999,6.02332,7.36177Q6.67686,8.43524,6.19573,9.596260000000001Q5.714729999999999,10.75696,4.49438,11.05398Q3.749985,11.23455,3.749985,12.00061Q3.749985,12.76635,4.49343,12.94628Q5.0682,13.0857,5.51921,13.4711Q5.97118,13.8594,6.19689,14.4041Q6.4236699999999995,14.9518,6.37775,15.5424Q6.33198,16.1331,6.02314,16.639Q5.62462,17.2929,6.16597,17.8343Q6.70731,18.3756,7.36171,17.9768Q7.86974,17.668100000000003,8.45806,17.622500000000002Q9.04878,17.576700000000002,9.595939999999999,17.8033Q10.14433,18.0305,10.529250000000001,18.481099999999998Q10.91372,18.9286,11.05388,19.5064Q11.23431,20.2503,12.00037,20.2503Q12.76611,20.2503,12.94603,19.5068Q13.0854,18.932000000000002,13.4708,18.481Q13.8578,18.0307,14.4039,17.8044Q14.9514,17.5775,15.5422,17.6235Q16.139699999999998,17.6699,16.642,17.977800000000002Q17.2928,18.375500000000002,17.835,17.834Q18.377499999999998,17.292099999999998,17.9794,16.638199999999998Q17.6647,16.116799999999998,17.622,15.5395Q17.5773,14.9358,17.8082,14.4015Q18.031,13.8519,18.4866,13.4678Q18.914,13.0915,19.5007,12.94699Q20.25,12.76562,20.25,11.99988Q20.25,11.23445,19.504,11.0543Q18.9157,10.909469999999999,18.4805,10.52757Q18.029600000000002,10.14657,17.8082,9.59905Q17.5773,9.06631,17.622,8.46098Q17.6649,7.88337,17.977899999999998,7.36472Q18.3774,6.708819999999999,17.834899999999998,6.16683Q17.2926,5.6250800000000005,16.6411,6.02322Q16.1376,6.33186,15.5419,6.37801Q14.9512,6.42378,14.4041,6.19722Q13.8527,5.96873,13.4695,5.517939999999999Q13.0863,5.07192,12.94612,4.49404L12.93176,4.43482Z" fill-rule="evenodd" fill="#252629" fill-opacity="1"/></g><g><path d="M13.944700000000001,10.055546440625Q13.1394,9.250244140625,12,9.250244140625Q10.860605,9.250244140625,10.0553023,10.055546440625Q9.25,10.860849140625,9.25,12.000244140625Q9.25,13.139644140625,10.0553023,13.944944140625001Q10.860604,14.750244140625,12,14.750244140625Q13.1394,14.750244140625,13.944700000000001,13.944944140625001Q14.75,13.139644140625,14.75,12.000244140625Q14.75,10.860848140625,13.944700000000001,10.055546440625ZM11.11596,11.116204140625Q11.48192,10.750244140625,12,10.750244140625Q12.51807,10.750244140625,12.88404,11.116204140625Q13.25,11.482164140625,13.25,12.000244140625Q13.25,12.518314140625,12.88404,12.884284140625Q12.51807,13.250244140625,12,13.250244140625Q11.48192,13.250244140625,11.11596,12.884284140625Q10.75,12.518314140625,10.75,12.000244140625Q10.75,11.482164140625,11.11596,11.116204140625Z" fill-rule="evenodd" fill="#252629" fill-opacity="1"/></g></g><g transform="matrix(1,0,0,-1,0,48)"></g></g></svg>