<svg xmlns="http://www.w3.org/2000/svg" xmlns:xlink="http://www.w3.org/1999/xlink" fill="none" version="1.1" width="24" height="24" viewBox="0 0 24 24"><g><g><path d="M4.5304839999999995,3.469824L12,10.93934L19.4692,3.470132L19.4697,3.46967Q19.575200000000002,3.364181,19.713,3.30709Q19.8508,3.25,20,3.25Q20.0739,3.25,20.1463,3.264411Q20.2188,3.278822,20.287,3.30709Q20.3553,3.335359,20.4167,3.376398Q20.4781,3.417437,20.5303,3.46967Q20.5826,3.521903,20.6236,3.583322Q20.6646,3.644742,20.6929,3.712987Q20.7212,3.781233,20.7356,3.853682Q20.75,3.9261315,20.75,4Q20.75,4.149184,20.6929,4.287013Q20.6358,4.424841,20.5303,4.53033L13.06066,12L20.5303,19.4697Q20.6358,19.575200000000002,20.6929,19.713Q20.75,19.8508,20.75,20Q20.75,20.0739,20.7356,20.1463Q20.7212,20.2188,20.6929,20.287Q20.6646,20.3553,20.6236,20.4167Q20.5826,20.4781,20.5303,20.5303Q20.4781,20.5826,20.4167,20.6236Q20.3553,20.6646,20.287,20.6929Q20.2188,20.7212,20.1463,20.7356Q20.0739,20.75,20,20.75Q19.8508,20.75,19.713,20.6929Q19.575200000000002,20.6358,19.4697,20.5303L12,13.06066L4.53033,20.5303Q4.424841,20.6358,4.287012,20.6929Q4.149184,20.75,4,20.75Q3.9261315,20.75,3.853682,20.7356Q3.781233,20.7212,3.712987,20.6929Q3.644742,20.6646,3.583322,20.6236Q3.521903,20.5826,3.46967,20.5303Q3.417437,20.4781,3.376398,20.4167Q3.335359,20.3553,3.30709,20.287Q3.278822,20.2188,3.264411,20.1463Q3.25,20.0739,3.25,20Q3.25,19.8508,3.30709,19.713Q3.364181,19.575200000000002,3.46967,19.4697L3.470132,19.4692L10.93934,12L3.46967,4.53033Q3.364181,4.424841,3.30709,4.287013Q3.25,4.149184,3.25,4Q3.25,3.9261315,3.264411,3.853682Q3.278822,3.781233,3.30709,3.712987Q3.335359,3.644742,3.376398,3.583322Q3.417437,3.521903,3.46967,3.46967Q3.521903,3.417437,3.583322,3.376398Q3.644742,3.335359,3.712987,3.30709Q3.781233,3.278822,3.853682,3.264411Q3.9261315,3.25,4,3.25Q4.149184,3.25,4.287013,3.30709Q4.424841,3.364181,4.53033,3.46967L4.5304839999999995,3.469824Z" fill-rule="evenodd" fill="#252629" fill-opacity="1"/></g><g transform="matrix(1,0,0,-1,0,48)"></g></g></svg>