<svg xmlns="http://www.w3.org/2000/svg" xmlns:xlink="http://www.w3.org/1999/xlink" fill="none" version="1.1" width="24" height="24" viewBox="0 0 24 24"><g><g><path d="M12.53033,7.53033Q12.635819999999999,7.424841,12.692910000000001,7.287013Q12.75,7.149184,12.75,7Q12.75,6.9261315,12.73559,6.853682Q12.72118,6.781233,12.692910000000001,6.712987Q12.66464,6.644742,12.6236,6.583322Q12.58256,6.521903,12.53033,6.46967Q12.478100000000001,6.417437,12.41668,6.376398Q12.355260000000001,6.335359,12.28701,6.30709Q12.21877,6.278822,12.14632,6.264411Q12.07387,6.25,12,6.25Q11.850819999999999,6.25,11.71299,6.30709Q11.57516,6.364181,11.46967,6.46967L11.46921,6.4701319999999996L6.46967,11.46967Q6.364181,11.57516,6.30709,11.71299Q6.25,11.850819999999999,6.25,12Q6.25,12.149180000000001,6.30709,12.28701Q6.364181,12.42484,6.46967,12.53033L11.46904,17.5297L11.46967,17.5303Q11.57516,17.6358,11.71299,17.6929Q11.850819999999999,17.75,12,17.75Q12.07387,17.75,12.14632,17.735599999999998Q12.21877,17.7212,12.28701,17.6929Q12.355260000000001,17.6646,12.41668,17.6236Q12.478100000000001,17.5826,12.53033,17.5303Q12.58256,17.478099999999998,12.6236,17.4167Q12.66464,17.3553,12.692910000000001,17.287Q12.72118,17.2188,12.73559,17.1463Q12.75,17.073900000000002,12.75,17Q12.75,16.85082,12.692910000000001,16.712989999999998Q12.635819999999999,16.57516,12.53033,16.46967L8.06066,12L12.529869999999999,7.530792L12.53033,7.53033L12.53033,7.53033Z" fill-rule="evenodd" fill="#252629" fill-opacity="1"/></g><g transform="matrix(1,0,0,-1,0,48)"></g></g></svg>