<svg xmlns="http://www.w3.org/2000/svg" xmlns:xlink="http://www.w3.org/1999/xlink" fill="none" version="1.1" width="24" height="24" viewBox="0 0 24 24"><g><g transform="matrix(1,0,0,-1,0,48)"></g><g><path d="M7.506593,9.446951L12,13.56291L16.49297,9.447354L16.49341,9.446951Q16.59713,9.351939,16.72823,9.30097Q16.85934,9.25,17,9.25Q17.073900000000002,9.25,17.1463,9.264410999999999Q17.2188,9.278822,17.287,9.30709Q17.3553,9.335359,17.4167,9.376398Q17.478099999999998,9.417437,17.5303,9.46967Q17.5826,9.521903,17.6236,9.583322Q17.6646,9.644742,17.6929,9.712987Q17.7212,9.781233,17.735599999999998,9.853682Q17.75,9.9261315,17.75,10Q17.75,10.157743,17.686500000000002,10.302122Q17.6229,10.446501,17.5066,10.553049L17.5062,10.553452L12.50659,15.13305Q12.45518,15.18014,12.39597,15.21696Q12.33675,15.25377,12.27177,15.279029999999999Q12.20678,15.3043,12.13825,15.31715Q12.06972,15.33,12,15.33Q11.93028,15.33,11.86175,15.31715Q11.79322,15.3043,11.72823,15.279029999999999Q11.66325,15.25377,11.60403,15.21696Q11.54482,15.18014,11.49341,15.13305L6.493407,10.553049Q6.3770869999999995,10.4465,6.313544,10.302122Q6.25,10.157743,6.25,10Q6.25,9.9261315,6.264411,9.853682Q6.278822,9.781233,6.30709,9.712987Q6.335359,9.644742,6.376398,9.583322Q6.417437,9.521903,6.46967,9.46967Q6.521903,9.417437,6.583322,9.376398Q6.644742,9.335359,6.712987,9.30709Q6.781233,9.278822,6.853682,9.264410999999999Q6.9261315,9.25,7,9.25Q7.140662,9.25,7.271766,9.30097Q7.402869,9.351939,7.506593,9.446951Z" fill-rule="evenodd" fill="#252629" fill-opacity="1"/></g></g></svg>