<svg xmlns="http://www.w3.org/2000/svg" xmlns:xlink="http://www.w3.org/1999/xlink" fill="none" version="1.1" width="24" height="24" viewBox="0 0 24 24"><g><g><path d="M13.7786,19.410899999999998Q21.75,12.39224,21.75,8.795639999999999Q21.75,6.20279,20.328,4.722705Q18.9131,3.25,16.4697,3.25Q14.244,3.25,11.9798,5.81275Q9.71552,3.25,7.4899,3.25Q2.250002,3.25,2.25,8.795639999999999Q2.25,11.30072,4.52009,14.0026Q5.8910599999999995,15.6343,10.145900000000001,19.3888L10.1815,19.4202L11.48521,20.5638Q11.53623,20.6086,11.59446,20.6434Q11.65269,20.6783,11.71623,20.7022Q11.77977,20.726,11.84656,20.7381Q11.91335,20.7501,11.98122,20.75Q12.04909,20.7499,12.11584,20.7376Q12.18258,20.7252,12.24603,20.7012Q12.30948,20.6771,12.36758,20.642Q12.42567,20.6069,12.47652,20.5619L13.7786,19.410899999999998ZM19.2463,5.76192Q20.25,6.80659,20.25,8.795639999999999Q20.25,11.71439,12.78518,18.287100000000002L11.9779,19.000700000000002L11.17396,18.2954L11.13835,18.264Q3.75,11.74464,3.75,8.795639999999999Q3.75,4.75,7.4899,4.75Q9.127410000000001,4.75,11.05542,7.03744Q11.29829,7.32558,11.41593,7.45972Q11.44833,7.49667,11.48528,7.52907Q11.54082,7.577780000000001,11.60479,7.6147100000000005Q11.66876,7.65165,11.73871,7.67539Q11.80866,7.69914,11.8819,7.70878Q11.95513,7.71842,12.02884,7.71359Q12.10255,7.70876,12.1739,7.68965Q12.24526,7.670529999999999,12.31151,7.63786Q12.37776,7.60519,12.43636,7.56022Q12.49497,7.51525,12.54367,7.45972Q12.66131,7.32558,12.90421,7.0374Q14.8322,4.75,16.4697,4.75Q18.2741,4.75,19.2463,5.76192Z" fill-rule="evenodd" fill="#707689" fill-opacity="1"/></g><g transform="matrix(1,0,0,-1,0,48)"></g></g></svg>