<svg xmlns="http://www.w3.org/2000/svg" xmlns:xlink="http://www.w3.org/1999/xlink" fill="none" version="1.1" width="24" height="24" viewBox="0 0 24 24"><g><g><path d="M12.530484,6.469824L17.53033,11.46967Q17.63582,11.57516,17.69291,11.71299Q17.75,11.850819999999999,17.75,12Q17.75,12.149180000000001,17.69291,12.28701Q17.63582,12.42484,17.53033,12.53033L12.530792,17.529899999999998L12.53033,17.5303Q12.424841,17.6358,12.287013,17.6929Q12.149184,17.75,12,17.75Q11.9261315,17.75,11.853682,17.735599999999998Q11.781233,17.7212,11.712987,17.6929Q11.644742,17.6646,11.583322,17.6236Q11.521903,17.5826,11.46967,17.5303Q11.417437,17.478099999999998,11.376398,17.4167Q11.335359,17.3553,11.30709,17.287Q11.278822,17.2188,11.264410999999999,17.1463Q11.25,17.073900000000002,11.25,17Q11.25,16.85081,11.30709,16.712989999999998Q11.364181,16.57516,11.46967,16.46967L11.470132,16.46921L15.93934,12L11.469824,7.5304839999999995L11.46967,7.53033Q11.364181,7.424841,11.30709,7.287013Q11.25,7.149184,11.25,7Q11.25,6.9261315,11.264410999999999,6.853682Q11.278822,6.781233,11.30709,6.712987Q11.335359,6.644742,11.376398,6.583322Q11.417437,6.521903,11.46967,6.46967Q11.521903,6.417437,11.583322,6.376398Q11.644742,6.335359,11.712987,6.30709Q11.781233,6.278822,11.853682,6.264411Q11.9261315,6.25,12,6.25Q12.149184,6.25,12.287013,6.30709Q12.424841,6.364181,12.53033,6.46967L12.530484,6.469824Z" fill-rule="evenodd" fill="#252629" fill-opacity="1"/></g><g transform="matrix(1,0,0,-1,0,48)"></g></g></svg>