<svg xmlns="http://www.w3.org/2000/svg" xmlns:xlink="http://www.w3.org/1999/xlink" fill="none" version="1.1" width="24" height="24" viewBox="0 0 24 24"><g><g><path d="M9,2.25L15,2.25Q15.0739,2.25,15.1463,2.264411Q15.2188,2.278822,15.287,2.30709Q15.3553,2.335359,15.4167,2.376398Q15.4781,2.417437,15.5303,2.46967Q15.5826,2.521903,15.6236,2.583322Q15.6646,2.644742,15.6929,2.712987Q15.7212,2.781233,15.7356,2.853682Q15.75,2.9261315,15.75,3Q15.75,3.0738685,15.7356,3.146318Q15.7212,3.218767,15.6929,3.287013Q15.6646,3.355258,15.6236,3.416678Q15.5826,3.478097,15.5303,3.53033Q15.4781,3.582563,15.4167,3.623602Q15.3553,3.664641,15.287,3.69291Q15.2188,3.721178,15.1463,3.735589Q15.0739,3.75,15,3.75L9,3.75Q8.92613,3.75,8.85368,3.735589Q8.78123,3.721178,8.71299,3.69291Q8.644739999999999,3.664641,8.58332,3.623602Q8.521899999999999,3.582563,8.46967,3.53033Q8.41744,3.478097,8.3764,3.416678Q8.33536,3.355258,8.307089999999999,3.287013Q8.27882,3.218767,8.26441,3.146318Q8.25,3.0738685,8.25,3Q8.25,2.9261315,8.26441,2.853682Q8.27882,2.781233,8.307089999999999,2.712987Q8.33536,2.644742,8.3764,2.583322Q8.41744,2.521903,8.46967,2.46967Q8.521899999999999,2.417437,8.58332,2.376398Q8.644739999999999,2.335359,8.71299,2.30709Q8.78123,2.278822,8.85368,2.264411Q8.92613,2.25,9,2.25ZM4,5.4259900000000005L20,5.4259900000000005Q20.0739,5.4259900000000005,20.1463,5.44041Q20.2188,5.45482,20.287,5.48308Q20.3553,5.51135,20.4167,5.55239Q20.4781,5.59343,20.5303,5.6456599999999995Q20.5826,5.697900000000001,20.6236,5.759320000000001Q20.6646,5.82074,20.6929,5.88898Q20.7212,5.95723,20.7356,6.02968Q20.75,6.10213,20.75,6.1759900000000005Q20.75,6.24986,20.7356,6.32231Q20.7212,6.39476,20.6929,6.463010000000001Q20.6646,6.53125,20.6236,6.59267Q20.5826,6.65409,20.5303,6.70632Q20.4781,6.75856,20.4167,6.7996Q20.3553,6.8406400000000005,20.287,6.8689Q20.2188,6.89717,20.1463,6.91158Q20.0739,6.9259900000000005,20,6.9259900000000005L18.6874,6.9259900000000005Q18.7161,7.10809,18.7095,7.30398L18.25,18.897399999999998Q18.2426,21.75,15.5,21.75L8.5,21.75Q5.75737,21.75,5.75002,18.897399999999998L5.29063,7.30871Q5.28401,7.1102,5.31309,6.9259900000000005L4,6.9259900000000005Q3.9261315,6.9259900000000005,3.853682,6.91158Q3.781233,6.89717,3.712987,6.8689Q3.644742,6.8406400000000005,3.583322,6.7996Q3.521903,6.75856,3.46967,6.70632Q3.417437,6.65409,3.376398,6.59267Q3.335359,6.53125,3.30709,6.463010000000001Q3.278822,6.39476,3.264411,6.32231Q3.25,6.24986,3.25,6.1759900000000005Q3.25,6.10213,3.264411,6.02968Q3.278822,5.95723,3.30709,5.88898Q3.335359,5.82074,3.376398,5.759320000000001Q3.417437,5.697900000000001,3.46967,5.6456599999999995Q3.521903,5.59343,3.583322,5.55239Q3.644742,5.51135,3.712987,5.48308Q3.781233,5.45482,3.853682,5.44041Q3.9261315,5.4259900000000005,4,5.4259900000000005ZM7.040039999999999,6.9259900000000005Q6.94656,6.9259900000000005,6.87529,7.00489Q6.78467,7.1052,6.78945,7.2493L7.24941,18.8523Q7.25,18.8671,7.25,18.881999999999998Q7.25,20.25,8.5,20.25L15.5,20.25Q16.75,20.25,16.75,18.881999999999998Q16.75,18.8671,16.7506,18.8523L17.2104,7.25404Q17.2153,7.1052,17.1247,7.00489Q17.0534,6.9259900000000005,16.96,6.9259900000000005L7.040039999999999,6.9259900000000005ZM9.25,10.411999999999999Q9.25,10.33813,9.26441,10.26568Q9.27882,10.19323,9.307089999999999,10.12499Q9.33536,10.05674,9.3764,9.99532Q9.41744,9.933900000000001,9.46967,9.88167Q9.521899999999999,9.82944,9.58332,9.7884Q9.644739999999999,9.74736,9.71299,9.71909Q9.78123,9.69082,9.85368,9.67641Q9.92613,9.661999999999999,10,9.661999999999999Q10.07387,9.661999999999999,10.14632,9.67641Q10.21877,9.69082,10.28701,9.71909Q10.355260000000001,9.74736,10.41668,9.7884Q10.478100000000001,9.82944,10.53033,9.88167Q10.58256,9.933900000000001,10.6236,9.99532Q10.66464,10.05674,10.692910000000001,10.12499Q10.72118,10.19323,10.73559,10.26568Q10.75,10.33813,10.75,10.411999999999999L10.75,16.765Q10.75,16.838900000000002,10.73559,16.9113Q10.72118,16.983800000000002,10.692910000000001,17.052Q10.66464,17.1203,10.6236,17.1817Q10.58256,17.2431,10.53033,17.295299999999997Q10.478100000000001,17.3476,10.41668,17.3886Q10.355260000000001,17.4296,10.28701,17.457900000000002Q10.21877,17.4862,10.14632,17.5006Q10.07387,17.515,10,17.515Q9.92613,17.515,9.85368,17.5006Q9.78123,17.4862,9.71299,17.457900000000002Q9.644739999999999,17.4296,9.58332,17.3886Q9.521899999999999,17.3476,9.46967,17.295299999999997Q9.41744,17.2431,9.3764,17.1817Q9.33536,17.1203,9.307089999999999,17.052Q9.27882,16.983800000000002,9.26441,16.9113Q9.25,16.838900000000002,9.25,16.765L9.25,10.411999999999999ZM13.25,10.411999999999999Q13.25,10.33813,13.26441,10.26568Q13.27882,10.19323,13.30709,10.12499Q13.33536,10.05674,13.3764,9.99532Q13.41744,9.933900000000001,13.46967,9.88167Q13.5219,9.82944,13.58332,9.7884Q13.64474,9.74736,13.71299,9.71909Q13.78123,9.69082,13.85368,9.67641Q13.92613,9.661999999999999,14,9.661999999999999Q14.0739,9.661999999999999,14.1463,9.67641Q14.2188,9.69082,14.287,9.71909Q14.3553,9.74736,14.4167,9.7884Q14.4781,9.82944,14.5303,9.88167Q14.5826,9.933900000000001,14.6236,9.99532Q14.6646,10.05674,14.6929,10.12499Q14.7212,10.19323,14.7356,10.26568Q14.75,10.33813,14.75,10.411999999999999L14.75,16.765Q14.75,16.838900000000002,14.7356,16.9113Q14.7212,16.983800000000002,14.6929,17.052Q14.6646,17.1203,14.6236,17.1817Q14.5826,17.2431,14.5303,17.295299999999997Q14.4781,17.3476,14.4167,17.3886Q14.3553,17.4296,14.287,17.457900000000002Q14.2188,17.4862,14.1463,17.5006Q14.0739,17.515,14,17.515Q13.92613,17.515,13.85368,17.5006Q13.78123,17.4862,13.71299,17.457900000000002Q13.64474,17.4296,13.58332,17.3886Q13.5219,17.3476,13.46967,17.295299999999997Q13.41744,17.2431,13.3764,17.1817Q13.33536,17.1203,13.30709,17.052Q13.27882,16.983800000000002,13.26441,16.9113Q13.25,16.838900000000002,13.25,16.765L13.25,10.411999999999999Z" fill-rule="evenodd" fill="#252629" fill-opacity="1"/></g><g transform="matrix(1,0,0,-1,0,48)"></g></g></svg>