<svg xmlns="http://www.w3.org/2000/svg" xmlns:xlink="http://www.w3.org/1999/xlink" fill="none" version="1.1" width="24" height="24" viewBox="0 0 24 24"><g><g><path d="M4,5.25L20,5.25Q20.0739,5.25,20.1463,5.264411Q20.2188,5.278822,20.287,5.30709Q20.3553,5.335359,20.4167,5.376398Q20.4781,5.417437,20.5303,5.46967Q20.5826,5.521903,20.6236,5.583322Q20.6646,5.644742,20.6929,5.712987Q20.7212,5.781233,20.7356,5.853682Q20.75,5.9261315,20.75,6Q20.75,6.0738685,20.7356,6.146318Q20.7212,6.218767,20.6929,6.287013Q20.6646,6.355258,20.6236,6.416678Q20.5826,6.478097,20.5303,6.53033Q20.4781,6.582563,20.4167,6.623602Q20.3553,6.664641,20.287,6.69291Q20.2188,6.721178,20.1463,6.735589Q20.0739,6.75,20,6.75L4,6.75Q3.9261315,6.75,3.853682,6.735589Q3.781233,6.721178,3.712987,6.69291Q3.644742,6.664641,3.583322,6.623602Q3.521903,6.582563,3.46967,6.53033Q3.417437,6.478097,3.376398,6.416678Q3.335359,6.355258,3.30709,6.287013Q3.278822,6.218767,3.264411,6.146318Q3.25,6.0738685,3.25,6Q3.25,5.9261315,3.264411,5.853682Q3.278822,5.781233,3.30709,5.712987Q3.335359,5.644742,3.376398,5.583322Q3.417437,5.521903,3.46967,5.46967Q3.521903,5.417437,3.583322,5.376398Q3.644742,5.335359,3.712987,5.30709Q3.781233,5.278822,3.853682,5.264411Q3.9261315,5.25,4,5.25ZM4,11.25L20,11.25Q20.0739,11.25,20.1463,11.26441Q20.2188,11.27882,20.287,11.307089999999999Q20.3553,11.33536,20.4167,11.3764Q20.4781,11.41744,20.5303,11.46967Q20.5826,11.521899999999999,20.6236,11.58332Q20.6646,11.644739999999999,20.6929,11.71299Q20.7212,11.78123,20.7356,11.85368Q20.75,11.92613,20.75,12Q20.75,12.07387,20.7356,12.14632Q20.7212,12.21877,20.6929,12.28701Q20.6646,12.355260000000001,20.6236,12.41668Q20.5826,12.478100000000001,20.5303,12.53033Q20.4781,12.58256,20.4167,12.6236Q20.3553,12.66464,20.287,12.692910000000001Q20.2188,12.72118,20.1463,12.73559Q20.0739,12.75,20,12.75L4,12.75Q3.9261315,12.75,3.853682,12.73559Q3.781233,12.72118,3.712987,12.692910000000001Q3.644742,12.66464,3.583322,12.6236Q3.521903,12.58256,3.46967,12.53033Q3.417437,12.478100000000001,3.376398,12.41668Q3.335359,12.355260000000001,3.30709,12.28701Q3.278822,12.21877,3.264411,12.14632Q3.25,12.07387,3.25,12Q3.25,11.92613,3.264411,11.85368Q3.278822,11.78123,3.30709,11.71299Q3.335359,11.644739999999999,3.376398,11.58332Q3.417437,11.521899999999999,3.46967,11.46967Q3.521903,11.41744,3.583322,11.3764Q3.644742,11.33536,3.712987,11.307089999999999Q3.781233,11.27882,3.853682,11.26441Q3.9261315,11.25,4,11.25ZM4,17.25L20,17.25Q20.0739,17.25,20.1463,17.264400000000002Q20.2188,17.2788,20.287,17.3071Q20.3553,17.3354,20.4167,17.3764Q20.4781,17.4174,20.5303,17.4697Q20.5826,17.521900000000002,20.6236,17.5833Q20.6646,17.6447,20.6929,17.713Q20.7212,17.7812,20.7356,17.8537Q20.75,17.926099999999998,20.75,18Q20.75,18.073900000000002,20.7356,18.1463Q20.7212,18.2188,20.6929,18.287Q20.6646,18.3553,20.6236,18.4167Q20.5826,18.478099999999998,20.5303,18.5303Q20.4781,18.5826,20.4167,18.6236Q20.3553,18.6646,20.287,18.6929Q20.2188,18.7212,20.1463,18.735599999999998Q20.0739,18.75,20,18.75L4,18.75Q3.9261315,18.75,3.853682,18.735599999999998Q3.781233,18.7212,3.712987,18.6929Q3.644742,18.6646,3.583322,18.6236Q3.521903,18.5826,3.46967,18.5303Q3.417437,18.478099999999998,3.376398,18.4167Q3.335359,18.3553,3.30709,18.287Q3.278822,18.2188,3.264411,18.1463Q3.25,18.073900000000002,3.25,18Q3.25,17.926099999999998,3.264411,17.8537Q3.278822,17.7812,3.30709,17.713Q3.335359,17.6447,3.376398,17.5833Q3.417437,17.521900000000002,3.46967,17.4697Q3.521903,17.4174,3.583322,17.3764Q3.644742,17.3354,3.712987,17.3071Q3.781233,17.2788,3.853682,17.264400000000002Q3.9261315,17.25,4,17.25Z" fill-rule="evenodd" fill="#252629" fill-opacity="1"/></g><g transform="matrix(1,0,0,-1,0,48)"></g></g></svg>