<svg xmlns="http://www.w3.org/2000/svg" xmlns:xlink="http://www.w3.org/1999/xlink" fill="none" version="1.1" width="24" height="24" viewBox="0 0 24 24"><g><g><path d="M16.4697,4C14.7467,4,13.6003,5.08924,12.7178,6.10031C12.32055,6.55545,11.63904,6.55545,11.2418,6.10031C10.35933,5.08924,9.212900000000001,4,7.4899,4C4.72412,4,3,6.11008,3,8.795639999999999C3,12.09133,6.05273,14.7767,10.67682,18.857C10.67755,18.857599999999998,10.6781,18.8581,10.67883,18.858800000000002L11.31782,19.4193C11.69624,19.7513,12.26241,19.7502,12.63957,19.416800000000002L13.2812,18.849600000000002C13.2817,18.8492,13.282,18.849,13.2824,18.8485C17.9067,14.7769,21,11.87687,21,8.795639999999999C21,5.71429,19.2759,4,16.4697,4Z" fill="#FF5B61" fill-opacity="1"/></g><g transform="matrix(1,0,0,-1,0,48)"></g></g></svg>