<svg xmlns="http://www.w3.org/2000/svg" xmlns:xlink="http://www.w3.org/1999/xlink" fill="none" version="1.1" width="24" height="24" viewBox="0 0 24 24"><g><g><path d="M17.914099999999998,5.76591Q15.3982,3.25,11.840029999999999,3.25Q8.28185,3.25,5.76593,5.76591Q3.25,8.28183,3.25,11.84Q3.25,15.3981,5.76593,17.914099999999998Q8.28186,20.43,11.840029999999999,20.43Q14.9829,20.43,17.3126,18.467100000000002L20.2778,21.3383L20.2783,21.3388Q20.3833,21.4404,20.5186,21.4952Q20.654,21.55,20.8,21.55Q20.8739,21.55,20.9464,21.5356Q21.0188,21.5212,21.0871,21.4929Q21.1553,21.4646,21.2167,21.4236Q21.2781,21.3825,21.3304,21.3303Q21.3826,21.2781,21.4237,21.2167Q21.4647,21.1552,21.493,21.087Q21.5212,21.0188,21.5356,20.9463Q21.55,20.8739,21.55,20.8Q21.55,20.6477,21.4906,20.5074Q21.4312,20.3671,21.3218,20.2612L21.3213,20.2607L18.3808,17.4135Q20.4301,15.0512,20.4301,11.84Q20.4301,8.28183,17.914099999999998,5.76591ZM6.8265899999999995,6.82657Q8.90317,4.75,11.840029999999999,4.75Q14.7769,4.75,16.8535,6.82657Q18.9301,8.90315,18.9301,11.84Q18.9301,14.7768,16.8535,16.8534Q14.7769,18.93,11.840029999999999,18.93Q8.90317,18.93,6.8265899999999995,16.8534Q4.75,14.7768,4.75,11.84Q4.75,8.90315,6.8265899999999995,6.82657Z" fill-rule="evenodd" fill="#252629" fill-opacity="1"/></g><g transform="matrix(1,0,0,-1,0,48)"></g></g></svg>