<svg xmlns="http://www.w3.org/2000/svg" xmlns:xlink="http://www.w3.org/1999/xlink" fill="none" version="1.1" width="24" height="24" viewBox="0 0 24 24"><g><g transform="matrix(1,0,0,-1,0,48)"></g><g><path d="M4,11.5L20,11.5Q20.0739,11.5,20.1463,11.514410999999999Q20.2188,11.528822,20.287,11.55709Q20.3553,11.585359,20.4167,11.626398Q20.4781,11.667437,20.5303,11.71967Q20.5826,11.771903,20.6236,11.833322Q20.6646,11.894742,20.6929,11.962987Q20.7212,12.031233,20.7356,12.103682Q20.75,12.1761315,20.75,12.25Q20.75,12.3238685,20.7356,12.396318Q20.7212,12.468767,20.6929,12.537013Q20.6646,12.605258,20.6236,12.666678Q20.5826,12.728097,20.5303,12.78033Q20.4781,12.832563,20.4167,12.873602Q20.3553,12.914641,20.287,12.94291Q20.2188,12.971178,20.1463,12.985589000000001Q20.0739,13,20,13L4,13Q3.9261315,13,3.853682,12.985589000000001Q3.781233,12.971178,3.712987,12.94291Q3.644742,12.914641,3.583322,12.873602Q3.521903,12.832563,3.46967,12.78033Q3.417437,12.728097,3.376398,12.666678Q3.335359,12.605258,3.30709,12.537013Q3.278822,12.468767,3.264411,12.396318Q3.25,12.3238685,3.25,12.25Q3.25,12.1761315,3.264411,12.103682Q3.278822,12.031233,3.30709,11.962987Q3.335359,11.894742,3.376398,11.833322Q3.417437,11.771903,3.46967,11.71967Q3.521903,11.667437,3.583322,11.626398Q3.644742,11.585359,3.712987,11.55709Q3.781233,11.528822,3.853682,11.514410999999999Q3.9261315,11.5,4,11.5Z" fill-rule="evenodd" fill="#252629" fill-opacity="1"/></g></g></svg>