<svg xmlns="http://www.w3.org/2000/svg" xmlns:xlink="http://www.w3.org/1999/xlink" fill="none" version="1.1" width="16" height="16" viewBox="0 0 16 16"><g><g><path d="M7.38332298828125,3.33349609375Q7.38332298828125,3.25962759375,7.39773298828125,3.18717809375Q7.41214298828125,3.11472909375,7.44041298828125,3.04648309375Q7.46868298828125,2.97823809375,7.50972298828125,2.91681809375Q7.55075298828125,2.85539909375,7.60299298828125,2.80316609375Q7.65522298828125,2.75093309375,7.71664298828125,2.70989409375Q7.77806298828125,2.66885509375,7.84631298828125,2.64058609375Q7.91455298828125,2.61231809375,7.98700298828125,2.59790709375Q8.059452988281251,2.58349609375,8.13332298828125,2.58349609375Q8.20719298828125,2.58349609375,8.27964298828125,2.59790709375Q8.35208298828125,2.61231809375,8.420332988281249,2.64058609375Q8.48858298828125,2.66885509375,8.55000298828125,2.70989409375Q8.61142298828125,2.75093309375,8.66365298828125,2.80316609375Q8.715882988281251,2.85539909375,8.75692298828125,2.91681809375Q8.797962988281249,2.97823809375,8.82623298828125,3.04648309375Q8.85450298828125,3.11472909375,8.868912988281249,3.18717809375Q8.88332298828125,3.25962759375,8.88332298828125,3.33349609375L8.88332298828125,7.38349609375L12.93333298828125,7.38349609375Q13.00719298828125,7.38349609375,13.07964298828125,7.39790609375Q13.15209298828125,7.41231609375,13.22034298828125,7.44058609375Q13.28858298828125,7.46885609375,13.35001298828125,7.50989609375Q13.41141298828125,7.55093609375,13.46361298828125,7.60316609375Q13.51591298828125,7.65539609375,13.55691298828125,7.71681609375Q13.59801298828125,7.77823609375,13.62621298828125,7.84647609375Q13.65451298828125,7.91472609375,13.66891298828125,7.98717609375Q13.68331298828125,8.059626093750001,13.68331298828125,8.13349609375Q13.68331298828125,8.20736609375,13.66891298828125,8.27981609375Q13.65451298828125,8.35225609375,13.62621298828125,8.42050609375Q13.59801298828125,8.48875609375,13.55691298828125,8.55017609375Q13.51591298828125,8.611586093749999,13.46361298828125,8.66382609375Q13.41141298828125,8.71605609375,13.35001298828125,8.75709609375Q13.28858298828125,8.79813609375,13.22034298828125,8.82640609375Q13.15209298828125,8.854676093750001,13.07964298828125,8.86908609375Q13.00719298828125,8.88349609375,12.93333298828125,8.88349609375L12.93248298828125,8.88349609375L8.88332298828125,8.88349609375L8.88332298828125,12.93349609375Q8.88332298828125,13.00736609375,8.868912988281249,13.07980609375Q8.85450298828125,13.15225609375,8.82623298828125,13.22050609375Q8.797962988281249,13.28874609375,8.75692298828125,13.35019609375Q8.715882988281251,13.41159609375,8.66365298828125,13.46379609375Q8.61142298828125,13.51609609375,8.55000298828125,13.55709609375Q8.48858298828125,13.59809609375,8.420332988281249,13.62639609375Q8.35208298828125,13.65469609375,8.27964298828125,13.66909609375Q8.20719298828125,13.68349609375,8.13332298828125,13.68349609375Q8.059452988281251,13.68349609375,7.98700298828125,13.66909609375Q7.91455298828125,13.65469609375,7.84631298828125,13.62639609375Q7.77806298828125,13.59809609375,7.71664298828125,13.55709609375Q7.65522298828125,13.51609609375,7.60299298828125,13.46379609375Q7.55075298828125,13.41159609375,7.50971298828125,13.35019609375Q7.46868298828125,13.28874609375,7.44041298828125,13.22050609375Q7.41214298828125,13.15225609375,7.39773298828125,13.07980609375Q7.38332298828125,13.00736609375,7.38332298828125,12.93349609375L7.38332298828125,8.88349609375L3.33331298828125,8.88349609375Q3.25944448828125,8.88349609375,3.18699498828125,8.86908609375Q3.11454598828125,8.854676093750001,3.04629998828125,8.82640609375Q2.97805498828125,8.79813609375,2.91663498828125,8.75709609375Q2.85521598828125,8.71605609375,2.80298298828125,8.66382609375Q2.75074998828125,8.611586093749999,2.70971098828125,8.55017609375Q2.66867198828125,8.48875609375,2.64040298828125,8.42050609375Q2.61213498828125,8.35225609375,2.59772398828125,8.27981609375Q2.58331298828125,8.20736609375,2.58331298828125,8.13349609375Q2.58331298828125,8.059626093750001,2.59772398828125,7.98717609375Q2.61213498828125,7.91472609375,2.64040298828125,7.84648609375Q2.66867198828125,7.77823609375,2.70971098828125,7.71681609375Q2.75074998828125,7.65539609375,2.80298298828125,7.60316609375Q2.85521598828125,7.55093609375,2.91663498828125,7.50989609375Q2.97805498828125,7.46885609375,3.04629998828125,7.44058609375Q3.11454598828125,7.41231609375,3.18699498828125,7.39790609375Q3.25944448828125,7.38349609375,3.33331298828125,7.38349609375L7.38332298828125,7.38349609375L7.38332298828125,3.33349609375L7.38332298828125,3.33349609375Z" fill-rule="evenodd" fill="#F76F5A" fill-opacity="1"/></g><g transform="matrix(1,0,0,-1,0,32)"></g></g></svg>