<svg xmlns="http://www.w3.org/2000/svg" xmlns:xlink="http://www.w3.org/1999/xlink" fill="none" version="1.1" width="24" height="24" viewBox="0 0 24 24"><defs><clipPath id="master_svg0_65_8608"><rect x="0" y="0" width="24" height="24" rx="0"/></clipPath></defs><g clip-path="url(#master_svg0_65_8608)"><g><path d="M5.07419010772705,21.15010004043579L8.78007010772705,21.15010004043579Q8.853940107727052,21.15010004043579,8.926390107727052,21.13570004043579Q8.998840107727052,21.12130004043579,9.067080107727051,21.09300004043579Q9.13533010772705,21.064700040435792,9.196750107727052,21.02370004043579Q9.25817010772705,20.98270004043579,9.310400107727052,20.930400040435792Q9.36263010772705,20.87820004043579,9.40367010772705,20.81680004043579Q9.444710107727051,20.75540004043579,9.47298010772705,20.68710004043579Q9.501250107727051,20.61890004043579,9.51566010772705,20.546400040435792Q9.53007010772705,20.47400004043579,9.53007010772705,20.40010004043579Q9.53007010772705,20.32620004043579,9.51566010772705,20.25380004043579Q9.501250107727051,20.18130004043579,9.47298010772705,20.113100040435793Q9.444710107727051,20.044800040435792,9.40367010772705,19.98340004043579Q9.36263010772705,19.92200004043579,9.310400107727052,19.86980004043579Q9.25817010772705,19.817500040435792,9.196750107727052,19.776500040435792Q9.13533010772705,19.73550004043579,9.067080107727051,19.70720004043579Q8.998840107727052,19.678900040435792,8.926390107727052,19.66450004043579Q8.853940107727052,19.65010004043579,8.78007010772705,19.65010004043579L5.07419010772705,19.65010004043579Q4.505900107727051,19.65010004043579,4.104880107727051,19.25240004043579Q3.706540107727051,18.85740004043579,3.706540107727051,18.30010004043579L3.706540107727051,5.700100040435791Q3.706540107727051,5.142750040435791,4.104900107727051,4.747710040435791Q4.505850107727051,4.350100040435791,5.07419010772705,4.350100040435791L8.78007010772705,4.350100040435791Q8.853940107727052,4.350100040435791,8.926390107727052,4.335689040435791Q8.998840107727052,4.321278040435791,9.067080107727051,4.293010040435791Q9.13533010772705,4.264741040435791,9.196750107727052,4.223702040435791Q9.25817010772705,4.182663040435791,9.310400107727052,4.130430040435791Q9.36263010772705,4.078197040435791,9.40367010772705,4.016778040435791Q9.444710107727051,3.955358040435791,9.47298010772705,3.887113040435791Q9.501250107727051,3.818867040435791,9.51566010772705,3.746418040435791Q9.53007010772705,3.673968540435791,9.53007010772705,3.600100040435791Q9.53007010772705,3.526231540435791,9.51566010772705,3.453782040435791Q9.501250107727051,3.381333040435791,9.47298010772705,3.313087040435791Q9.444710107727051,3.244842040435791,9.40367010772705,3.183422040435791Q9.36263010772705,3.122003040435791,9.310400107727052,3.069770040435791Q9.25817010772705,3.017537040435791,9.196750107727052,2.976498040435791Q9.13533010772705,2.935459040435791,9.067080107727051,2.907190040435791Q8.998840107727052,2.878922040435791,8.926390107727052,2.864511040435791Q8.853940107727052,2.850100040435791,8.78007010772705,2.850100040435791L5.07419010772705,2.850100040435791Q3.888207107727051,2.850100040435791,3.0486838077270506,3.682625340435791Q2.206540107727051,4.517750040435791,2.206540107727051,5.700100040435791L2.206540107727051,18.30010004043579Q2.206540107727051,19.48250004043579,3.0486970077270508,20.317600040435792Q3.888277107727051,21.15010004043579,5.07419010772705,21.15010004043579ZM15.91574010772705,7.718160040435791Q15.81584010772705,7.613500040435791,15.761940107727051,7.4791700404357915Q15.70814010772705,7.344830040435792,15.70814010772705,7.200100040435791Q15.70814010772705,7.126230040435791,15.72254010772705,7.053780040435791Q15.736940107727051,6.981330040435791,15.765140107727051,6.913090040435791Q15.79344010772705,6.844840040435791,15.834540107727051,6.783420040435791Q15.875540107727051,6.722000040435791,15.92774010772705,6.669770040435791Q15.980040107727051,6.617540040435792,16.04144010772705,6.576500040435791Q16.10284010772705,6.535460040435791,16.171040107727052,6.507190040435791Q16.239340107727052,6.478920040435791,16.31174010772705,6.4645100404357905Q16.384240107727052,6.450100040435791,16.45814010772705,6.450100040435791Q16.61174010772705,6.450100040435791,16.753040107727053,6.510520040435791Q16.89434010772705,6.570940040435791,17.00044010772705,6.6820400404357905L21.585640107727052,11.482040040435791Q21.68564010772705,11.58670004043579,21.739440107727052,11.72103004043579Q21.79334010772705,11.85537004043579,21.79334010772705,12.000100040435791Q21.79334010772705,12.14483004043579,21.739440107727052,12.27917004043579Q21.68564010772705,12.41350004043579,21.585640107727052,12.518160040435792L17.00044010772705,17.31820004043579Q16.89434010772705,17.42930004043579,16.753040107727053,17.489700040435793Q16.61174010772705,17.55010004043579,16.45814010772705,17.55010004043579Q16.384240107727052,17.55010004043579,16.31174010772705,17.535700040435792Q16.239340107727052,17.52130004043579,16.171040107727052,17.49300004043579Q16.10284010772705,17.46470004043579,16.04144010772705,17.42370004043579Q15.980040107727051,17.382700040435793,15.92774010772705,17.33040004043579Q15.875540107727051,17.27820004043579,15.834540107727051,17.216800040435793Q15.79344010772705,17.155400040435794,15.765140107727051,17.087100040435793Q15.736940107727051,17.01890004043579,15.72254010772705,16.94640004043579Q15.70814010772705,16.87400004043579,15.70814010772705,16.80010004043579Q15.70814010772705,16.655400040435794,15.761940107727051,16.52100004043579Q15.81584010772705,16.38670004043579,15.91574010772705,16.28200004043579L19.289640107727053,12.750100040435791L9.04326010772705,12.750100040435791Q8.969390107727051,12.750100040435791,8.896940107727051,12.735690040435792Q8.824490107727051,12.721280040435792,8.756250107727052,12.69301004043579Q8.688000107727051,12.664740040435792,8.626580107727051,12.623700040435791Q8.565160107727051,12.58266004043579,8.512930107727051,12.53043004043579Q8.46070010772705,12.478200040435791,8.41966010772705,12.41678004043579Q8.378620107727052,12.35536004043579,8.350350107727051,12.287110040435792Q8.32208010772705,12.21887004043579,8.307670107727052,12.14642004043579Q8.29326010772705,12.07397004043579,8.29326010772705,12.000100040435791Q8.29326010772705,11.92623004043579,8.307670107727052,11.85378004043579Q8.32208010772705,11.78133004043579,8.350350107727051,11.713090040435791Q8.378620107727052,11.64484004043579,8.41966010772705,11.58342004043579Q8.46070010772705,11.522000040435792,8.512930107727051,11.46977004043579Q8.565160107727051,11.417540040435792,8.626580107727051,11.37650004043579Q8.688000107727051,11.335460040435791,8.756250107727052,11.307190040435792Q8.824490107727051,11.278920040435791,8.896940107727051,11.264510040435791Q8.969390107727051,11.250100040435791,9.04326010772705,11.250100040435791L19.289640107727053,11.250100040435791L15.91574010772705,7.718160040435791Z" fill-rule="evenodd" fill="#252629" fill-opacity="1"/></g></g></svg>