<svg xmlns="http://www.w3.org/2000/svg" xmlns:xlink="http://www.w3.org/1999/xlink" fill="none" version="1.1" width="24" height="24" viewBox="0 0 24 24"><g><g><path d="M11.2512,3Q11.2512,2.9261315,11.265609999999999,2.853682Q11.28002,2.781233,11.30829,2.712987Q11.33656,2.644742,11.377600000000001,2.583322Q11.41864,2.521903,11.47087,2.46967Q11.5231,2.417437,11.584520000000001,2.376398Q11.64594,2.335359,11.71419,2.30709Q11.78243,2.278822,11.85488,2.264411Q11.927330000000001,2.25,12.0012,2.25Q12.07507,2.25,12.14752,2.264411Q12.21996,2.278822,12.28821,2.30709Q12.35646,2.335359,12.41788,2.376398Q12.4793,2.417437,12.53153,2.46967Q12.58376,2.521903,12.6248,2.583322Q12.66584,2.644742,12.69411,2.712987Q12.72238,2.781233,12.73679,2.853682Q12.7512,2.9261315,12.7512,3L12.7512,13.2252L16.4247,9.82928Q16.5286,9.73319,16.6604,9.6816Q16.792299999999997,9.63001,16.933799999999998,9.629999999999999Q17.0077,9.629999999999999,17.0801,9.64442Q17.1526,9.65883,17.2208,9.687090000000001Q17.289099999999998,9.71536,17.3505,9.7564Q17.4119,9.79744,17.464100000000002,9.84967Q17.5164,9.90191,17.5574,9.96333Q17.598399999999998,10.024750000000001,17.6267,10.09299Q17.655,10.16124,17.6694,10.23369Q17.683799999999998,10.30614,17.683799999999998,10.379999999999999Q17.683799999999998,10.536850000000001,17.6209,10.68056Q17.5581,10.824259999999999,17.4429,10.93073L12.51032,15.4907Q12.40638,15.5868,12.27456,15.6383Q12.14275,15.6899,12.0012,15.6899Q11.85965,15.6899,11.72784,15.6383Q11.59602,15.5868,11.49208,15.4907L11.49147,15.4901L6.55947,10.93073Q6.4443,10.824259999999999,6.38144,10.68056Q6.31859,10.536850000000001,6.31859,10.379999999999999Q6.31859,10.30614,6.333,10.23369Q6.34741,10.16124,6.37568,10.09299Q6.40395,10.024750000000001,6.444990000000001,9.96333Q6.4860299999999995,9.90191,6.53826,9.84967Q6.59049,9.79744,6.65191,9.7564Q6.71333,9.71536,6.78158,9.687090000000001Q6.849819999999999,9.65883,6.92227,9.64442Q6.99472,9.629999999999999,7.06859,9.629999999999999Q7.21014,9.63001,7.341950000000001,9.6816Q7.47377,9.73319,7.57771,9.82928L11.2512,13.2252L11.2512,3ZM3.472767,20.9134Q3.3658580000000002,20.8077,3.307929,20.669Q3.25,20.5303,3.25,20.38Q3.25,20.3061,3.264411,20.2337Q3.278822,20.1612,3.30709,20.093Q3.335359,20.0247,3.376398,19.9633Q3.417437,19.9019,3.46967,19.8497Q3.521903,19.7974,3.583322,19.7564Q3.644742,19.7154,3.712987,19.6871Q3.781233,19.6588,3.853682,19.6444Q3.9261315,19.63,4,19.63Q4.14805,19.63,4.284994,19.6863Q4.421939,19.7425,4.527233,19.8466Q4.935363,20.25,5.52595,20.25L18.4741,20.25Q19.0637,20.25,19.4714,19.848L19.4727,19.8467L19.4728,19.8466Q19.5781,19.7425,19.715,19.6863Q19.8519,19.63,20,19.63Q20.0739,19.63,20.1463,19.6444Q20.2188,19.6588,20.287,19.6871Q20.3553,19.7154,20.4167,19.7564Q20.4781,19.7974,20.5303,19.8497Q20.5826,19.9019,20.6236,19.9633Q20.6646,20.0247,20.6929,20.093Q20.7212,20.1612,20.7356,20.2337Q20.75,20.3061,20.75,20.38Q20.75,20.5303,20.6921,20.669Q20.6341,20.8077,20.5272,20.9134L20.5271,20.9135L20.5269,20.9137Q19.6806,21.75,18.4741,21.75L5.52595,21.75Q4.319152,21.75,3.472767,20.9134Z" fill-rule="evenodd" fill="#252629" fill-opacity="1"/></g><g transform="matrix(1,0,0,-1,0,48)"></g></g></svg>