<svg xmlns="http://www.w3.org/2000/svg" xmlns:xlink="http://www.w3.org/1999/xlink" fill="none" version="1.1" width="24" height="24" viewBox="0 0 24 24"><g><g transform="matrix(1,0,0,-1,0,48)"></g><g><g><ellipse cx="12" cy="12" rx="10" ry="10" fill="#959DB3" fill-opacity="1"/></g><g><path d="M8.530484,7.469824L12,10.93934L15.46967,7.46967Q15.57516,7.364181,15.71299,7.30709Q15.850819999999999,7.25,16,7.25Q16.07387,7.25,16.14632,7.264411Q16.21877,7.278822,16.287010000000002,7.30709Q16.35526,7.335359,16.41668,7.376398Q16.478099999999998,7.417437,16.53033,7.46967Q16.58256,7.521903,16.6236,7.583322Q16.66464,7.644742,16.692909999999998,7.712987Q16.72118,7.781233,16.735590000000002,7.853682Q16.75,7.9261315,16.75,8Q16.75,8.149184,16.692909999999998,8.287013Q16.635820000000002,8.424841,16.53033,8.53033L16.529870000000003,8.530792L13.06066,12L16.53033,15.46967Q16.635820000000002,15.57516,16.692909999999998,15.71299Q16.75,15.850819999999999,16.75,16Q16.75,16.07387,16.735590000000002,16.14632Q16.72118,16.21877,16.692909999999998,16.287010000000002Q16.66464,16.35526,16.6236,16.41668Q16.58256,16.478099999999998,16.53033,16.53033Q16.478099999999998,16.58256,16.41668,16.6236Q16.35526,16.66464,16.287010000000002,16.692909999999998Q16.21877,16.72118,16.14632,16.735590000000002Q16.07387,16.75,16,16.75Q15.850819999999999,16.75,15.71299,16.692909999999998Q15.57516,16.635820000000002,15.46967,16.53033L12,13.06066L8.530792,16.529870000000003L8.53033,16.53033Q8.424841,16.635820000000002,8.287013,16.692909999999998Q8.149184,16.75,8,16.75Q7.9261315,16.75,7.853682,16.735590000000002Q7.781233,16.72118,7.712987,16.692909999999998Q7.644742,16.66464,7.583322,16.6236Q7.521903,16.58256,7.46967,16.53033Q7.417437,16.478099999999998,7.376398,16.41668Q7.335359,16.35526,7.30709,16.287010000000002Q7.278822,16.21877,7.264411,16.14632Q7.25,16.07387,7.25,16Q7.25,15.850819999999999,7.30709,15.71299Q7.364181,15.57516,7.46967,15.46967L10.93934,12L7.46967,8.53033Q7.364181,8.424841,7.30709,8.287013Q7.25,8.149184,7.25,8Q7.25,7.9261315,7.264411,7.853682Q7.278822,7.781233,7.30709,7.712987Q7.335359,7.644742,7.376398,7.583322Q7.417437,7.521903,7.46967,7.46967Q7.521903,7.417437,7.583322,7.376398Q7.644742,7.335359,7.712987,7.30709Q7.781233,7.278822,7.853682,7.264411Q7.9261315,7.25,8,7.25Q8.149184,7.25,8.287013,7.30709Q8.424841,7.364181,8.53033,7.46967L8.530484,7.469824Z" fill-rule="evenodd" fill="#FFFFFF" fill-opacity="1"/></g><g></g></g></g></svg>