<svg xmlns="http://www.w3.org/2000/svg" xmlns:xlink="http://www.w3.org/1999/xlink" fill="none" version="1.1" width="24" height="24" viewBox="0 0 24 24"><g><g transform="matrix(1,0,0,-1,0,48)"></g><g><path d="M4.8690365596875,7.632820000000001L4.8688697796875,7.63312Q4.7730102796875,7.8040400000000005,4.7730102796875,8Q4.7730102796875,8.07387,4.7874212796875,8.14632Q4.8018323796875,8.21877,4.8301005796875,8.28701Q4.8583688796875,8.355260000000001,4.8994080796875,8.41668Q4.9404471796875,8.478100000000001,4.9926796796875,8.53033Q5.0449126796875,8.58256,5.1063326796875,8.6236Q5.1677516796875,8.66464,5.2359976796875,8.692910000000001Q5.3042436796875,8.72118,5.3766926796875,8.73559Q5.4491416796875,8.75,5.5230106796875,8.75Q5.6229456796875,8.75,5.7193946796875,8.72383Q5.8158436796875,8.697659999999999,5.9020716796875,8.64715Q5.9883116796875,8.59664,6.0583016796875,8.52532Q6.1283016796875,8.453990000000001,6.1771816796875,8.36682L6.1779816796875,8.365400000000001Q8.206531679687501,4.75,12.242001679687501,4.75Q15.1398716796875,4.75,17.190471679687498,6.86529Q19.249971679687498,8.989709999999999,19.249971679687498,12Q19.249971679687498,15.0103,17.190471679687498,17.134700000000002Q15.1398716796875,19.25,12.242001679687501,19.25Q7.1733416796875,19.25,5.5863396796875,14.2747L5.5861006796875,14.274L5.5855536796875,14.2722Q5.5675486796875,14.2158,5.5408906796875,14.1628Q5.5142336796875,14.1098,5.4795856796875,14.0617Q5.4449376796875,14.0136,5.4031596796875,13.97153Q5.3613816796875,13.92946,5.3135116796875,13.89448Q5.2656426796875,13.85949,5.2128706796875,13.83246Q5.1600986796875,13.80544,5.1037356796875,13.78703Q5.0473716796875,13.76863,4.9888176796875,13.75932Q4.9302627796875,13.75,4.8709716796875,13.75Q4.7971031796875,13.75,4.7246536796875,13.76441Q4.6522046796875,13.77882,4.5839586796875,13.80709Q4.5157136796875,13.83536,4.4542936796875,13.8764Q4.3928746796875,13.91744,4.3406416796875,13.96967Q4.2884086796875,14.0219,4.2473696796875,14.0833Q4.2063306796875,14.1447,4.1780616796875,14.213Q4.1497936796875,14.2812,4.1353826796875,14.3537Q4.1209716796875,14.4261,4.1209716796875,14.5Q4.1209716796875,14.6167,4.1564076796875,14.7278L4.1565386796875,14.7282Q6.0760616796875,20.75,12.242001679687501,20.75Q15.7748716796875,20.75,18.2674716796875,18.178800000000003Q20.749971679687498,15.618,20.749971679687498,12Q20.749971679687498,8.38198,18.2674716796875,5.82121Q15.7748716796875,3.25,12.242001679687501,3.25Q7.3273416796875,3.25,4.8690365596875,7.632820000000001Z" fill-rule="evenodd" fill="#252629" fill-opacity="1"/></g><g><path d="M4,9L7.87903,9L4,5L4,9Z" fill="#252629" fill-opacity="1"/><path d="M3.25,9Q3.25,9.07387,3.264411,9.14632Q3.278822,9.21877,3.30709,9.28701Q3.335359,9.355260000000001,3.376398,9.41668Q3.417437,9.478100000000001,3.46967,9.53033Q3.521903,9.58256,3.583322,9.6236Q3.644742,9.66464,3.712987,9.692910000000001Q3.781233,9.72118,3.853682,9.73559Q3.9261315,9.75,4,9.75L7.87903,9.75Q7.9529,9.75,8.02535,9.73559Q8.0978,9.72118,8.166039999999999,9.692910000000001Q8.23429,9.66464,8.29571,9.6236Q8.35713,9.58256,8.40936,9.53033Q8.461590000000001,9.478100000000001,8.50263,9.41668Q8.543669999999999,9.355260000000001,8.57194,9.28701Q8.60021,9.21877,8.61462,9.14632Q8.62903,9.07387,8.62903,9Q8.62903,8.85381,8.57412,8.718309999999999Q8.519210000000001,8.58282,8.41744,8.47787L4.538409,4.477874Q4.486984,4.424845,4.426202,4.382868Q4.36542,4.340891,4.297616,4.311578Q4.229813,4.282266,4.157593,4.266744Q4.0853737,4.251222,4.0115139,4.250088Q3.937654,4.248954,3.864992,4.262252Q3.79233,4.275549,3.723659,4.302766Q3.654987,4.329983,3.592945,4.370075Q3.530903,4.410166,3.477874,4.461591Q3.368628,4.567533,3.309314,4.707677Q3.25,4.847821,3.25,5L3.25,9ZM4.75,8.25L6.1069700000000005,8.25L4.75,6.85072L4.75,8.25Z" fill-rule="evenodd" fill="#252629" fill-opacity="1"/></g></g></svg>