<svg xmlns="http://www.w3.org/2000/svg" xmlns:xlink="http://www.w3.org/1999/xlink" fill="none" version="1.1" width="24" height="24" viewBox="0 0 24 24"><defs><clipPath id="master_svg0_4_258"><rect x="0" y="0" width="24" height="24" rx="0"/></clipPath></defs><g clip-path="url(#master_svg0_4_258)"><g><path d="M5.5600000000000005,3L18.04,3C18.9015,3,19.6,3.8058899999999998,19.6,4.8L19.6,19.0914C19.6,19.8981,18.6941,20.3728,18.0308,19.9136L17.5693,19.5941C17.2268,19.357,16.7733,19.357,16.430799999999998,19.5941L14.9693,20.6059C14.6268,20.843,14.1733,20.843,13.83084,20.6059L12.36925,19.5941C12.02681,19.357,11.57329,19.357,11.23084,19.5941L9.769210000000001,20.6059C9.42676,20.843,8.97324,20.843,8.6308,20.6059L7.16921,19.5941C6.82677,19.357,6.3732299999999995,19.357,6.03079,19.5941L5.56921,19.9136C4.905979,20.3728,4,19.8981,4,19.0914L4,4.8C4,3.8058899999999998,4.69844,3,5.5600000000000005,3Z" fill="#D8DEF1" fill-opacity="1"/></g><g><path d="M7.599999904632568,7.050000190734863L16.00004990463257,7.050000190734863Q16.073919904632568,7.050000190734863,16.146369904632568,7.064411190734863Q16.218819904632568,7.078822190734863,16.28705990463257,7.107090190734863Q16.35530990463257,7.135359190734864,16.416729904632568,7.176398190734863Q16.478149904632566,7.217437190734863,16.530379904632568,7.269670190734863Q16.58260990463257,7.321903190734863,16.62364990463257,7.383322190734863Q16.664689904632567,7.444742190734863,16.692959904632566,7.512987190734863Q16.72122990463257,7.581233190734864,16.73563990463257,7.653682190734863Q16.75004990463257,7.726131690734864,16.75004990463257,7.800000190734863Q16.75004990463257,7.873868690734863,16.73563990463257,7.946318190734863Q16.72122990463257,8.018767190734863,16.692959904632566,8.087013190734863Q16.664689904632567,8.155258190734862,16.62364990463257,8.216678190734862Q16.58260990463257,8.278097190734863,16.530379904632568,8.330330190734863Q16.478149904632566,8.382563190734864,16.416729904632568,8.423602190734863Q16.35530990463257,8.464641190734863,16.28705990463257,8.492910190734863Q16.218819904632568,8.521178190734863,16.146369904632568,8.535589190734864Q16.073919904632568,8.550000190734863,16.00004990463257,8.550000190734863L7.599999904632568,8.550000190734863Q7.526131404632569,8.550000190734863,7.453681904632568,8.535589190734864Q7.381232904632569,8.521178190734863,7.312986904632568,8.492910190734863Q7.244741904632568,8.464641190734863,7.183321904632568,8.423602190734863Q7.121902904632568,8.382563190734864,7.069669904632568,8.330330190734863Q7.017436904632568,8.278097190734863,6.976397904632568,8.216678190734862Q6.935358904632569,8.155258190734862,6.907089904632568,8.087013190734863Q6.878821904632568,8.018767190734863,6.864410904632568,7.946318190734863Q6.849999904632568,7.873868690734863,6.849999904632568,7.800000190734863Q6.849999904632568,7.726131690734864,6.864410904632568,7.653682190734863Q6.878821904632568,7.581233190734864,6.907089904632568,7.512987190734863Q6.935358904632569,7.444742190734863,6.976397904632568,7.383322190734863Q7.017436904632568,7.321903190734863,7.069669904632568,7.269670190734863Q7.121902904632568,7.217437190734863,7.183321904632568,7.176398190734863Q7.244741904632568,7.135359190734864,7.312986904632568,7.107090190734863Q7.381232904632569,7.078822190734863,7.453681904632568,7.064411190734863Q7.526131404632569,7.050000190734863,7.599999904632568,7.050000190734863ZM7.599999904632568,11.850000190734864L16.00004990463257,11.850000190734864Q16.073919904632568,11.850000190734864,16.146369904632568,11.864410190734862Q16.218819904632568,11.878820190734864,16.28705990463257,11.907090190734863Q16.35530990463257,11.935360190734864,16.416729904632568,11.976400190734864Q16.478149904632566,12.017440190734863,16.530379904632568,12.069670190734863Q16.58260990463257,12.121900190734863,16.62364990463257,12.183320190734864Q16.664689904632567,12.244740190734863,16.692959904632566,12.312990190734864Q16.72122990463257,12.381230190734863,16.73563990463257,12.453680190734863Q16.75004990463257,12.526130190734865,16.75004990463257,12.600000190734864Q16.75004990463257,12.673870190734863,16.73563990463257,12.746320190734863Q16.72122990463257,12.818770190734863,16.692959904632566,12.887010190734863Q16.664689904632567,12.955260190734863,16.62364990463257,13.016680190734863Q16.58260990463257,13.078100190734864,16.530379904632568,13.130330190734863Q16.478149904632566,13.182560190734863,16.416729904632568,13.223600190734864Q16.35530990463257,13.264640190734863,16.28705990463257,13.292910190734863Q16.218819904632568,13.321180190734864,16.146369904632568,13.335590190734862Q16.073919904632568,13.350000190734864,16.00004990463257,13.350000190734864L7.599999904632568,13.350000190734864Q7.526131404632569,13.350000190734864,7.453681904632568,13.335590190734862Q7.381232904632569,13.321180190734864,7.312986904632568,13.292910190734863Q7.244741904632568,13.264640190734863,7.183321904632568,13.223600190734864Q7.121902904632568,13.182560190734863,7.069669904632568,13.130330190734863Q7.017436904632568,13.078100190734864,6.976397904632568,13.016680190734863Q6.935358904632569,12.955260190734863,6.907089904632568,12.887010190734863Q6.878821904632568,12.818770190734863,6.864410904632568,12.746320190734863Q6.849999904632568,12.673870190734863,6.849999904632568,12.600000190734864Q6.849999904632568,12.526130190734865,6.864410904632568,12.453680190734863Q6.878821904632568,12.381230190734863,6.907089904632568,12.312990190734864Q6.935358904632569,12.244740190734863,6.976397904632568,12.183320190734864Q7.017436904632568,12.121900190734863,7.069669904632568,12.069670190734863Q7.121902904632568,12.017440190734863,7.183321904632568,11.976400190734864Q7.244741904632568,11.935360190734864,7.312986904632568,11.907090190734863Q7.381232904632569,11.878820190734864,7.453681904632568,11.864410190734862Q7.526131404632569,11.850000190734864,7.599999904632568,11.850000190734864Z" fill-rule="evenodd" fill="#959DB3" fill-opacity="1"/></g><g transform="matrix(1,0,0,-1,0,48)"></g></g></svg>