<svg xmlns="http://www.w3.org/2000/svg" xmlns:xlink="http://www.w3.org/1999/xlink" fill="none" version="1.1" width="24" height="24" viewBox="0 0 24 24"><g><g><path d="M16.492820000000002,15.13551L16.49323,15.13588Q16.59697,15.23096,16.72812,15.28198Q16.859270000000002,15.332989999999999,17,15.332989999999999Q17.073900000000002,15.332989999999999,17.1463,15.31858Q17.2188,15.30417,17.287,15.2759Q17.3553,15.247630000000001,17.4167,15.20659Q17.478099999999998,15.16556,17.5303,15.11332Q17.5826,15.06109,17.6236,14.99967Q17.6646,14.93825,17.6929,14.870000000000001Q17.7212,14.80176,17.735599999999998,14.72931Q17.75,14.65686,17.75,14.582989999999999Q17.75,14.42531,17.686500000000002,14.28098Q17.622999999999998,14.13665,17.5068,14.03011L12.50677,9.447116Q12.45535,9.399983,12.39612,9.363141Q12.33689,9.3263,12.27188,9.301014Q12.20687,9.275728,12.13831,9.262864Q12.069749999999999,9.25,12,9.25Q11.930250000000001,9.25,11.86169,9.262864Q11.79313,9.275728,11.72812,9.301014Q11.66311,9.3263,11.60388,9.363141Q11.54465,9.399983,11.49323,9.447116L6.493227,14.03011Q6.376989,14.13665,6.313494,14.28098Q6.25,14.42531,6.25,14.582989999999999Q6.25,14.65686,6.264411,14.72931Q6.278822,14.80176,6.30709,14.870000000000001Q6.335359,14.93825,6.376398,14.99967Q6.417437,15.06109,6.46967,15.11332Q6.521903,15.16556,6.583322,15.20659Q6.644742,15.247630000000001,6.712987,15.2759Q6.781233,15.30417,6.853682,15.31858Q6.9261315,15.332989999999999,7,15.332989999999999Q7.140726,15.332989999999999,7.271879,15.28198Q7.403033,15.23096,7.506773,15.13588L7.507175,15.13551L12,11.01739L16.492820000000002,15.13551Z" fill-rule="evenodd" fill="#252629" fill-opacity="1"/></g><g transform="matrix(1,0,0,-1,0,48)"></g></g></svg>