<svg xmlns="http://www.w3.org/2000/svg" xmlns:xlink="http://www.w3.org/1999/xlink" fill="none" version="1.1" width="24" height="24" viewBox="0 0 24 24"><g><g><path d="M11.450009999999999,5Q11.450009999999999,4.9261315,11.46442,4.853682Q11.47883,4.781233,11.507100000000001,4.712987Q11.53537,4.644742,11.57641,4.583322Q11.61745,4.521903,11.66968,4.46967Q11.721910000000001,4.417437,11.78333,4.376398Q11.844750000000001,4.335359,11.913,4.30709Q11.98124,4.278822,12.05369,4.264411Q12.12614,4.25,12.200009999999999,4.25Q12.27388,4.25,12.34633,4.264411Q12.41878,4.278822,12.487020000000001,4.30709Q12.55527,4.335359,12.61669,4.376398Q12.67811,4.417437,12.73034,4.46967Q12.78257,4.521903,12.82361,4.583322Q12.864650000000001,4.644742,12.89292,4.712987Q12.92119,4.781233,12.9356,4.853682Q12.950009999999999,4.9261315,12.950009999999999,5L12.950009999999999,11.45L19.4,11.45Q19.4739,11.45,19.546300000000002,11.46441Q19.6188,11.478819999999999,19.686999999999998,11.50709Q19.7553,11.53536,19.8167,11.57639Q19.8781,11.617429999999999,19.9304,11.66967Q19.982599999999998,11.7219,20.023600000000002,11.78332Q20.064700000000002,11.84474,20.0929,11.912980000000001Q20.1212,11.98123,20.1356,12.05368Q20.15,12.12613,20.15,12.2Q20.15,12.273859999999999,20.1356,12.346309999999999Q20.1212,12.418759999999999,20.0929,12.48701Q20.064700000000002,12.555250000000001,20.023600000000002,12.61667Q19.982599999999998,12.678090000000001,19.9304,12.73033Q19.8781,12.78256,19.8167,12.823599999999999Q19.7553,12.86464,19.686999999999998,12.89291Q19.6188,12.92117,19.546300000000002,12.935590000000001Q19.4739,12.95,19.4,12.95L12.950009999999999,12.95L12.950009999999999,19.4Q12.950009999999999,19.4739,12.9356,19.546300000000002Q12.92119,19.6188,12.89292,19.686999999999998Q12.864650000000001,19.755200000000002,12.82361,19.8167Q12.78257,19.8781,12.73034,19.930300000000003Q12.67811,19.982599999999998,12.61669,20.023600000000002Q12.55527,20.0646,12.487020000000001,20.0929Q12.41878,20.1212,12.34633,20.1356Q12.27388,20.15,12.200009999999999,20.15Q12.12614,20.15,12.05369,20.1356Q11.98124,20.1212,11.913,20.0929Q11.844750000000001,20.0646,11.78333,20.023600000000002Q11.721910000000001,19.982599999999998,11.66968,19.930300000000003Q11.61745,19.8781,11.57641,19.8167Q11.53537,19.755200000000002,11.507100000000001,19.686999999999998Q11.47883,19.6188,11.46442,19.546300000000002Q11.450009999999999,19.4739,11.450009999999999,19.4L11.450009999999999,12.95L5,12.95Q4.9261315,12.95,4.853682,12.935590000000001Q4.781233,12.92117,4.712987,12.89291Q4.644742,12.86464,4.583322,12.823599999999999Q4.521903,12.78256,4.46967,12.73033Q4.417437,12.678090000000001,4.376398,12.61667Q4.335359,12.555250000000001,4.30709,12.48701Q4.278822,12.418759999999999,4.264411,12.346309999999999Q4.25,12.273859999999999,4.25,12.2Q4.25,12.12613,4.264411,12.05368Q4.278822,11.98123,4.30709,11.912980000000001Q4.335359,11.84474,4.376398,11.78332Q4.417437,11.7219,4.46967,11.66967Q4.521903,11.617429999999999,4.583322,11.57639Q4.644742,11.53536,4.712987,11.50709Q4.781233,11.478819999999999,4.853682,11.46441Q4.9261315,11.45,5,11.45L11.450009999999999,11.45L11.450009999999999,5Z" fill-rule="evenodd" fill="#000000" fill-opacity="1"/></g><g transform="matrix(1,0,0,-1,0,48)"></g></g></svg>