<svg xmlns="http://www.w3.org/2000/svg" xmlns:xlink="http://www.w3.org/1999/xlink" fill="none" version="1.1" width="36" height="36" viewBox="0 0 36 36"><g><g><rect x="0" y="0" width="36" height="36" rx="8" fill="#EFF2FA" fill-opacity="1"/><rect x="0.5" y="0.5" width="35" height="35" rx="7.5" fill-opacity="0" stroke-opacity="1" stroke="#D8DEF1" fill="none" stroke-width="1"/></g><g transform="matrix(1,0,0,-1,0,60)"></g><g><path d="M12,17.5L24,17.5Q24.073900000000002,17.5,24.1463,17.514411Q24.2188,17.528822,24.287,17.55709Q24.3553,17.585359,24.4167,17.626398000000002Q24.478099999999998,17.667437,24.5303,17.71967Q24.5826,17.771903000000002,24.6236,17.833322Q24.6646,17.894742,24.6929,17.962987Q24.7212,18.031233,24.735599999999998,18.103682Q24.75,18.1761315,24.75,18.25Q24.75,18.3238685,24.735599999999998,18.396318Q24.7212,18.468767,24.6929,18.537013Q24.6646,18.605258,24.6236,18.666678Q24.5826,18.728096999999998,24.5303,18.78033Q24.478099999999998,18.832563,24.4167,18.873601999999998Q24.3553,18.914641,24.287,18.94291Q24.2188,18.971178,24.1463,18.985589Q24.073900000000002,19,24,19L12,19Q11.9261315,19,11.853682,18.985589Q11.781233,18.971178,11.712987,18.94291Q11.644742,18.914641,11.583322,18.873601999999998Q11.521903,18.832563,11.46967,18.78033Q11.417437,18.728096999999998,11.376398,18.666678Q11.335359,18.605258,11.30709,18.537013Q11.278822,18.468767,11.264410999999999,18.396318Q11.25,18.3238685,11.25,18.25Q11.25,18.1761315,11.264410999999999,18.103682Q11.278822,18.031233,11.30709,17.962987Q11.335359,17.894742,11.376398,17.833322Q11.417437,17.771903000000002,11.46967,17.71967Q11.521903,17.667437,11.583322,17.626398000000002Q11.644742,17.585359,11.712987,17.55709Q11.781233,17.528822,11.853682,17.514411Q11.9261315,17.5,12,17.5Z" fill-rule="evenodd" fill="#D8DEF1" fill-opacity="1"/></g></g></svg>