<svg xmlns="http://www.w3.org/2000/svg" xmlns:xlink="http://www.w3.org/1999/xlink" fill="none" version="1.1" width="36" height="36" viewBox="0 0 36 36"><g><g><rect x="0" y="0" width="36" height="36" rx="8" fill="#FFFFFF" fill-opacity="1"/><rect x="0.5" y="0.5" width="35" height="35" rx="7.5" fill-opacity="0" stroke-opacity="1" stroke="#D8DEF1" fill="none" stroke-width="1"/></g><g><path d="M17.25,12Q17.25,11.9261315,17.264409999999998,11.853682Q17.27882,11.781233,17.30709,11.712987Q17.33536,11.644742,17.3764,11.583322Q17.41744,11.521903,17.46967,11.46967Q17.5219,11.417437,17.58332,11.376398Q17.64474,11.335359,17.712989999999998,11.30709Q17.78123,11.278822,17.85368,11.264410999999999Q17.92613,11.25,18,11.25Q18.07387,11.25,18.14632,11.264410999999999Q18.21877,11.278822,18.287010000000002,11.30709Q18.35526,11.335359,18.41668,11.376398Q18.4781,11.417437,18.53033,11.46967Q18.58256,11.521903,18.6236,11.583322Q18.66464,11.644742,18.69291,11.712987Q18.72118,11.781233,18.735590000000002,11.853682Q18.75,11.9261315,18.75,12L18.75,17.25L24,17.25Q24.073900000000002,17.25,24.1463,17.264409999999998Q24.2188,17.27882,24.287,17.30709Q24.3553,17.33536,24.4167,17.3764Q24.478099999999998,17.41744,24.5303,17.46967Q24.5826,17.5219,24.6236,17.58332Q24.6646,17.64474,24.6929,17.712989999999998Q24.7212,17.78123,24.735599999999998,17.85368Q24.75,17.92613,24.75,18Q24.75,18.07387,24.735599999999998,18.14632Q24.7212,18.21877,24.6929,18.287010000000002Q24.6646,18.35526,24.6236,18.41668Q24.5826,18.4781,24.5303,18.53033Q24.478099999999998,18.58256,24.4167,18.6236Q24.3553,18.66464,24.287,18.69291Q24.2188,18.72118,24.1463,18.735590000000002Q24.073900000000002,18.75,24,18.75L18.75,18.75L18.75,24Q18.75,24.073900000000002,18.735590000000002,24.1463Q18.72118,24.2188,18.69291,24.287Q18.66464,24.3553,18.6236,24.4167Q18.58256,24.478099999999998,18.53033,24.5303Q18.4781,24.5826,18.41668,24.6236Q18.35526,24.6646,18.287010000000002,24.6929Q18.21877,24.7212,18.14632,24.735599999999998Q18.07387,24.75,18,24.75Q17.92613,24.75,17.85368,24.735599999999998Q17.78123,24.7212,17.712989999999998,24.6929Q17.64474,24.6646,17.58332,24.6236Q17.5219,24.5826,17.46967,24.5303Q17.41744,24.478099999999998,17.3764,24.4167Q17.33536,24.3553,17.30709,24.287Q17.27882,24.2188,17.264409999999998,24.1463Q17.25,24.073900000000002,17.25,24L17.25,18.75L12,18.75Q11.9261315,18.75,11.853682,18.735590000000002Q11.781233,18.72118,11.712987,18.69291Q11.644742,18.66464,11.583322,18.6236Q11.521903,18.58256,11.46967,18.53033Q11.417437,18.4781,11.376398,18.41668Q11.335359,18.35526,11.30709,18.287010000000002Q11.278822,18.21877,11.264410999999999,18.14632Q11.25,18.07387,11.25,18Q11.25,17.92613,11.264410999999999,17.85368Q11.278822,17.78123,11.30709,17.712989999999998Q11.335359,17.64474,11.376398,17.58332Q11.417437,17.5219,11.46967,17.46967Q11.521903,17.41744,11.583322,17.3764Q11.644742,17.33536,11.712987,17.30709Q11.781233,17.27882,11.853682,17.264409999999998Q11.9261315,17.25,12,17.25L17.25,17.25L17.25,12Z" fill-rule="evenodd" fill="#414247" fill-opacity="1"/></g><g transform="matrix(1,0,0,-1,0,60)"></g></g></svg>